<mxfile host="Electron" modified="2023-05-01T15:43:44.419Z" agent="Mozilla/5.0 (Windows NT 10.0; Win64; x64) AppleWebKit/537.36 (KHTML, like Gecko) draw.io/21.2.1 Chrome/112.0.5615.87 Electron/24.1.2 Safari/537.36" etag="g59idYzSupXpOR1AB5ir" version="21.2.1" type="device">
  <diagram name="Page-1" id="6lbH51uvljGzPpRw64ME">
    <mxGraphModel dx="1434" dy="854" grid="1" gridSize="10" guides="1" tooltips="1" connect="1" arrows="1" fold="1" page="1" pageScale="1" pageWidth="850" pageHeight="1100" math="0" shadow="0">
      <root>
        <mxCell id="0" />
        <mxCell id="1" parent="0" />
        <mxCell id="8JHLPYsTB3bUKlKufhjB-11" value="" style="edgeStyle=orthogonalEdgeStyle;rounded=0;orthogonalLoop=1;jettySize=auto;html=1;" edge="1" parent="1" source="8JHLPYsTB3bUKlKufhjB-1" target="8JHLPYsTB3bUKlKufhjB-10">
          <mxGeometry relative="1" as="geometry" />
        </mxCell>
        <mxCell id="8JHLPYsTB3bUKlKufhjB-1" value="" style="shape=image;verticalLabelPosition=bottom;labelBackgroundColor=default;verticalAlign=top;aspect=fixed;imageAspect=0;image=data:image/jpeg,/9j/4AAQSkZJRgABAQEASABIAAD/2wBDABALCwwMDBENDREYEA4QGBwVEREVHCEZGRkZGSEgGRwcHBwZICAlJygnJSAwMDQ0MDBAQEBAQEBAQEBAQEBAQED/2wBDAREQEBITEhYSEhYWEhUSFhwWFxcWHCgcHB0cHCgxJSAgICAlMSwvKCgoLyw2NjExNjZAQD9AQEBAQEBAQEBAQED/wAARCAEAAQADAREAAhEBAxEB/8QAGwAAAwADAQEAAAAAAAAAAAAAAAMEAQIFBgf/xABJEAACAgEBAwcHCwICBwkAAAAAAQIDBBEFITEGEhMyQVFxIkJSYYGRsRQVIzM0Q1NyocHRYnOCshYkNURjo8Ilg5KT0uLj8PH/xAAaAQEAAwEBAQAAAAAAAAAAAAAAAQIDBAUG/8QAOBEBAAIBAQYCCAQGAgMBAAAAAAECEQMEEiExUXFBYRMUIjJSgZGhM2JysQUVI0KS0YLBNOHw8f/aAAwDAQACEQMRAD8A9+AAAAAAAAAAAAAAAAAAAAAAAAAAAAAAAAAAAAAAAAAAAAAAAAAAAAAAAAAAAAAAAAAAAAAAAAAAAAAAAAAAAAAAAAAAAAAAaSurh1pJAIntCqPBSl+nxAms2rZ5lS9rAms2rmvhzY+C/nUCae0c5/ev2aL4IBLzMp8bp/8AiYQFfY+M5P2sJNjNvtAfACiCAdFAMQBz5Lzn7wMdPNecBj5bYu5gZ+ctOtHXwYG8dpUPrax/X4APhk0WdSafq7QGAAAAAAAAAAAAAAA2lvYCZZHo+9gJlKUuLA05iA1dSA0lQBHkummUa5PWyfUrjvk/YThWbRHDxnlCeVeXLqY/NX/Emk/dBTHDr9EZt4V+s/6JliZL681H1Vr95a/AcP8A9MW8Zx2KeJFdbnS/NJv9NdBk3I857yzHFxu2mD8YpjenrJuU+GPoprwsR/cxX5Vzf8ug3p6no6dI+SqGz4eZbdDwsk/0m5Ib3b6G5HhNo+ZiwNX9Lk32R9FyUV/yowbG95QbnW1p/wDvJPtTZld+JKnGjXXbLTy5Lfov6tGy1bYnirfTzXFcRI5+090dcemC3eTz7Hp7eYR7PnKf6n5Y+5qtkutPnPw0KrtHaBq5sDXVgG8B1WTkVdSb07nvX6hK+jaie66On9S4e4C+MoyXOi9U+0DIAAAAAAAAABBbkc+XqXADTpADpAM9IAdIgM9IgJ8jEwstqWRTCyS3KTW/Tu1JiZjlKtqVtziJT2bHwJr6NSon2Tqm4tfroTvz37qzpV8M184losLaFe6GZGyPZ01erX+KLWozXp9EbupHK+e8FbKuedVar1GN9NjhNR/Ri9ccuUmlebROedZxLG0pU4FcbbNXGUuZ5PrTf7EVrvLXvFIzPXBNO1cB6fTc3XsknH4onct0VjW0+uO7oVbQxGvJurl4SX8kYnpK+/X4o+pnylT6jT8CEtG7GEtejmwDoGBnoAM9ABt0IGehAOiAz0YD8ayVMv6XxQHTAAAAAAAAAAOBXdz46+8DPSAHSgY6UA6YDHTMDHTMA6WQGVKxgc3L2fnUXvPwVzpS+up9L1pGkTExu2+UsL0tW3pNP5x1Y+c9mZ1EsfOcseT60ZJ7n6mk+HrJ3LROY4onV07xu39lPsKcpW3Yeqvxq9XCzTct/Zzu8nU5Z5SroTxmnvVjlKq9ql+RCK8EjHMunEdIaQ2rOL3hKqrasXxAqhnVyAar4MDfpEBnnIDOoAAAAC8i5U16+c+qgO0AAAAAAAAAMDy1Lae4CxRhNb9z70Bo6JeY1IBbhNcU0SMc1gbqpsBscZsgPhiAU14qAojUkAnIxcW766mFv54qXxQzKJrE84ie6OdVVMOZTCNcfRilFe5AiIjlGHKy4ahLlXVgT6yiAyGTJdoFFebLvAqrzn3gUQzQHxy0A6Fsp8FqA5f1tRAJWxivIWr72BzsmTlLV72B6lAAAAAAAAADA8rVxAshwAXaBiF9sfO9jAohfr1oJ/oBRX0T83QCmEK+wB0YIDfRAYYCbNQI7oTfYBBdjWvzWBDbg3vzAJJ7NyPRS9qAU9m2rjKEfGQGPkkY9bIrXhvA2Sw4cb3L8sf5AZHJxI9WE5+L0AorzfQrjH9QKoZFs+MvYtwFFYDXwAhv4gerQAAAAAAAAAwPK1cQLYcAFWgKRIdWQK6gK6wKIgZYCpAImBLY2BJa33gR2t94EdoE1gCJAagMrAspAupAtrAa+AEN/ED1aAAAAAAAAAGB5WriBbDgAq0BSAdWBXUBXWBREDLAVIBEwJbAI7AI7AJLAJpgIkBqAysCykC6kC2sBr4AQ38QPVoAAAAAAAAAYHlauIFsOACrQFIB1YFdQFdYFCAywFSARMCWwCO0CO0CSwCaYCJAagMrAspAupAtrAa+AEN/ED1aAAAAAAAAAAPPZWJLEuev1cn5EuzwA3hwAXaApEh1ZArqArrAoiBlgKkAiYEtgEdoEdoElgE0wESA1AZWBZSBdSBbWA18AF42JLMvSX1UX5cuzw8QPQgAAAAAAAAAHndoZryJtP6tdWP7gcuW0LcV+Q+dH0ZfswMx27i2brNa5e9AVVX0274TUvBkiqsgV1AV1gURAyAqQCLAJbAI7QI7QJLAJpgIkBqAyAFlIFcb6qlrOaj4sDSe3cWvdXrZL3IDSO0L8rrPmx9GP8gdPZuXPFsWj+il14/uB6UAAAAAAAAAA8fPXQDn5NfOA5tuOwEc2yHVbQD6tp59HVtft3gX08qs2vrxjMDoUctYL62j3AX1ctNmvrRnECmHKvZE/vGvFAb/AOkOypcL0AuW2dnPhfEBE9qYD+/iBLZtLC/GiBHbtLD/ABUBHbtLE/E1AmntHH7G37AESzovqwYGnyux8IL2sDKyMjsaXggM9JkS4zkAKmcuO8CirEkB08bH5oF2nMjr7gPWgAAAAAAAADA8rVxAbPBptXov1ARXbJs8zSaAhtwJx60GgEPA1A0ezn3Aa/Nku4DPzXLuAz82S7gNvm6S7ANXgyXYAmzDkBJZiSAmljMDToWgN41yJiJnkra0VjMzg2MGJrMc4RXUpblJ8KyF1EKkBRCmIFdOI5dWLYHQp2bLz9IAWRx6a1u8p97Amv4geqQAAAAAAAAAwPK1cQLIcAF2gaRsn36+IDFGqfWrXs3AMWDjy4JoDdbKi+qwM/NMvUBq9mTXmgaS2fL0QEzwJ+gBLZs+z0GBJZsy5/dsCaeych/dsBMtjZXoaeLQE+Rs+3GSlZoot6PR66e40pymI5ufW50tPGsTxM+bI6ayyK14byIvaOfHutbRpbjHDzghwlVJr6xLtj2lsUnjndUidanDG/5qacrEh9bTPX8274Ij0fSYlPp8cL1mro0ZFTWtVUNO/iZ4w3iYnjHFdXdY+3Tw3BKmsBr4AQ38QPVoAAAAAAAAAYHlauIFsOACrQFIkOrIFdQFdYFEQMgKkAiYEtjYElrfeBHbJ94EdjAltSkmnwYRMZjE+KSGsJOp9m+JpbjG99WOnmtp058ONewnJxWumveVrGeGcL6l5rGcZjxOgozW9apkcYlbhaOPGJHQW0PpcZ698DSLRbhb6sJ07aftafzq6ez8yvJW7dNdaBS1Zq109SL+U+MOrWVaGvgBDfxA9WgAAAAAAAABgeVq4gWQ4ALtAUgHVgV1AV1gURAywFyAnsAlsAjtAjtAksAmmBHf5Mo2d25mlOMTXqw1fZmup0nE9m3Ezbc/PJtYSspA0y8ScH8sxd1sN80u1d5pS39tuTn1dOY/qU4THN1dm5kMylWR3S4Tj3Mrau7LXTvF65+q58Cq6G/iB6tAAAAAAAAADA8rVxAshwAXaApEh1ZArqArrAoiBlgLkBPMCWwCO0CO0CSwCaYE9iUk0yYnE5VtEWiYnxJqb3wfm9pa8crfEy0ZnjSeO5wyprKN1lIF1QHPf/ZO0ozjuxsjiuxd/u4m3v184cs/0tXP9t3onwMXUhv4gerQAAAAAAAAAB53Lx3h36S3VTf0c+zw8QGw4AKtAUgH1gVVAV1gURAywFSARYBLYBHaBHYBJYBNMBEggmnq69+8vqc8dGWh7u98UzKiBRsspAupA12rifKsOXN69flx9nFe4vScT3Za1N6nnHE3ZGX8rwYtv6SvyJ+zg/aiLxiTRvvUjrHCVOLjvNyNIb6oP6SfZ+Vesq1ejAAAAAAAAAAPObRy/lUpRlvqW5R7PEDk/LbcN/Ry51f4c9/ufEBkdu4tm6zWuXvQFVV9Nu+E1L2gVVgV1AV1gURAywFSARMCWwCO0CO0CSwCaYE9nBkxzVtynsVS/o0Wv7zPRn+nHlltjXc+bT9hN6YiPurpau/aYn5OlSZuhXG+qrfOaj4sDSe3cWvdXrZL3IDk03dFlSWvR03vfGL0XqXsNfep5w5Y/pauP7bvS7LyZYc0o/UvrQ7PHxMnU9MAAAAAAAAAAePnroBz8mvnAc23HYCObZB+S2gH1bTz6Ora/aBfTyqza+vCMwOhRy1gvraPcBfVy02a+tGcQKY8q9kT+8a8UBv/AKQ7KlwvQC5bZ2c/v4gIntTAf38QJLNpYX40QJLdpYf4qAjs2lh/iATT2jj9jb9gCJZ0Xwg2AuN0tGktz/Q2j2t2enNyTPo9+k8rZmrEZTi01u04PtE29qazyngitJ9HW9feic/Jv0mRPjNmUxicOqtotETHiyqZy47yFlFWJIC6Oz4XQ5s/Y1xJraa8lL6dbxiWyxM/CXOos6SH4c/2L71bc4x5wy3NSnuW3o6S9ZsvbePtBumSdGXD6zHnul7O8rauPOOrSmpFuHK3SXSKtAAAAAAADA8rVxAbPBptXov1ARXbJs8zSaAhtwJx60GgEPA1A0ezn3Aa/Nku4DPzXLuAz82S7gNvm6S7ANXgyXYAmzDkBJZiSAmljMDToWgNowYDowYD4VhExE8+KiFSCToY6T17O1E5ypFd2cxynnC2nFcurFshd0Kdmy8/SAFkcemtbvKfewOfn5lFD+lno+Kj2+4tFZnkpbUrXnLbaG2NlbUalTjZPyqv6vJqilOLXDhLevE0itq+MY6S576lL8q2zHKYd3YWXnZOJ/r9MqrobudJc3nrv07H3md4iJ4N9K1pr7UYn93SKtAAAAHn87llg41sqqq5Xyg9HJaRjquOj3/A0jTmfJhbaKxOIjJ+yeU2HtSzoOa6b9NYwlvUtO5kWpMLaetW/DlLnVcSjVZDgBNm5NeLW7bHol72+5ExGeEK2tFYzLlR5SxT0dcub4p/oaeinqw9Zj4ZdbFuxc2pWxgnF+xp9zM5jHCW9bRaMwpWDjy4JohZutlRfVYGfmmXqA1ezJrzQNJbPl6IE1+L0a1mtCl9SmnGbzhatLXnFYyinVB8Dl9f0el5+Uf7b+qanWpE8LncNB/MNLpf6R/s9U1Otf8A75ES2ZJ9sf8A77B/MNLpf6R/s9U1Otfv/omWx731Umu/X+To0daurEzXMYnHFjqaU6c4tjjx4NPmbI7eavb/AAV1dp0tPhaePSOMppo3vxiOHWTI7Fn22L2Iw/mGn8N/s29Tv1qfDZEF1rH7EP5hp/Db7Hqd/iqcsHHr4RlZ/i0LV2/RnnvV7wrOyakcsS3rthB6RpjF+vezrraLRms5ifGHPMTE4nhKuORPtfuOW23aVbTWYvmszHKPD5uiuy3mInNeMZVV7zrc5r4AcXbGD8qSlDdbHh613F6W3ezHW0t+OHOHS2VykWPJbP2rV8luh5PSac2L9cl2a963FrU8a8Vaa2PY1I3ZelTTWq3p8GZOgAAAAAfKKIqy+uEuEpJP2s65eXHOO6i6u/ZG0XFPS3Gs8l9+m9PwaI96O605pfzrL0WLYrYRsjwktTmmMcHoVnMRMeLoQ4ELPMcosvpclURfk08fzP8Ag3044Z6uLaL5tu/D+7n3Y7qopslxt5z9i00LxOZnyZWritZ+LLu8mfs1n9z9kZavP5OrZvdnu7kcvFg+bK6EWuKckv3M8T0bb1esfV0KmpJNPVPg0QsoiAu/Iox48++yNUW9FKclFa928YzyRMxHOYjuTXmYuQ2qL67WuKhNS+DJxMc4ItWeUxPZx9qSbyWnwilp8TxtumZ1pjpEYelssf0+8y2qxquijJrVs6tn2XSnSra1d6bRnmw1tfUi81icRBdlUFwRt6pofBH3ZesavxJp7uA9U0Pgj7nrGr8SWxtveaRSulW25GPFWbWvaN6c+CngjweMzx5zL1uUdnNnm367nzV3afyexXYtGI4xvT1zP/TzZ2rVmeE48sNPluT6f6L+CfU9n+D7z/tHrOt8X2hVh5NlknGe/drqcm17NTTrF6cOOMOjZ9e17btuPDOT7VvTLfw+0+3Xw4SjbIj2bePIxcDi1vxdT9dv3dOl+HT9MfsurPejlHZ5M85OfAkQ3geiysHEzqlXlVRtXZrxXg+KJiZjkratbcLRlNgYmRs2Sxoyd+FL6ty69P8AS++Pd3EzOePKVa1mnDnXw8nSKtAAAYA+V4n2mn88fijrnk8uvOO70vLTBTdefBf8O3/pf7e4y0p8HVtNOV/lKDk/kaqWO+MfKj4PiRqx4p2a3Ca9OMO3k5McXGsvl5i3et9i95nEZnDe9t2s26PIY9U83LUW9XZLWb/WTOmZ3Y7PPrE3vjrPFft9KLoS3JJpL3Gel4ttp/tW8mfs9n5/2RGrzjsvs3uz3cXaf2/I/uS+JrX3Y7ObU9+3d7/Zv2PH/tQ/yo5p5z3ehT3a9oXxIWef5bf7Mq/vx/yTNNL3vk59p9yP1OXyL+0ZP5F8S2ryhnsvO3Z2do4c52dLX5WvFHkbZs17W9JT2usPY2fXrWNy3DpKSORbVHmSjuXfuMdPatXRruTXhHLe4S1voaepO9FufRrLIcuwv/ML/BCnqdfikmXlF6fxCP76Y84Vtsfw2+qafWO2bRfTm1ZzE1ly7s1vETwmJhS+DPBjnHd688pcWR9E8ZqBZs/632HHt/4P/KHRsn4n/GVtvYc/8P8Afv2bbZ7te7dcDk1vxdT9dv3dGl+HT9Mfsuq4HvRyjs8mecnPgSIcgD0ldqlFANUgMgZAANGwPlmL9oq/PH4nXPJ5decd3t9suNuNZTPhJf8A4zlicTl6Vq71Zjq8Zi3SwsuM3u5ktJr1cGdMxvV7uCszS/aeLp8os1T6PGresfrJ6evqmelXxbbRflWO8ttgYnNqlkyW+fkw8Fx/UjVnwW2anDe68IJ5Q9anwl+xOl4q7Vzr81nJn7PZ+f8AZEavOOy2ze7Pdxdp/b8j+5L4mtfdjs5tT37d3v8AZv2PH/tQ/wAqOaec93oU92vaF8SFnn+W3+zKv78f8kzTS975Ofafcj9Tl8i/tGT+RfEtq8oZ7Lzt2epmYuxLYBHaBJPieTt9axeuIxmOLv2SZms544ngmu66N9j/APHv3t+zPafxq9o/c98Dy45w7p5OOlFy0k+au8+hvMxXNY3p6cnj1iJnEzu+ah7NlprGafccX8wrnFqTHXi6vU5xwtEs4MXG5qS0aW8nbbRbQiYnMTaMK7NExqzE8JiJWW9hj/D/AH79mu2e7Xu3XA5Nb8XU/Xb93Rpfh0/TH7LquB71eUdnkzznuc+BIhyO0C7DzUqVKXuXFlL3ild6fpHOZ6LVrNpxCqraUXJKcean26p6dm8wrtcTPtV3YnxznHdrOzzjhOflj6OgmdTBuBhgaSA+c0bI2lG+tyxbElKLb5r7zpm1cc4efGnfMezPN6raFbnFnM9B5XaGNKdvPhHy2tJR7W12o207xjEuTX0pzvVjOeZePszOyrFHo5rgnOaaSS3dvcXm1YYxp3tPKe8vUqqNFUaodWCSXsOeePF6ERiIiPBxduY910quihKeieui17jTTmIzlz7RW07uImeavk9RbTRYrYODc9Unu7ERqTEzwW2esxWcxjiNq8np5VjyMWSU5deuW7V96ZNNTHCVdXQ3p3q8/GCKVyrxIKmpT5kd0VpCei8XqW/pypHrFeEZ+0nLJ5Zd0/8Ay6//AEkY0jO0ef0hFti7lBPHitqKXQc9c3nQhHy9Hp1UuzUtXcz7KmpOrj2+WVfIv7Rk/kXxK6vKF9l527O1myzFe+i53M3aaI8naLbTGpPo97d4YxD19GNDcjf3d7zlI5ZvbzvcY7+2/n/xa7uzfl+pcnf26jf238/+Ju7L+X6lP1lfVto1bZvmPOyfTaOnGK/Sqa56vU9PS0o06bkcevm4dTUm9t7k3hlQ4TejPN1ti1KzM6cb1fvDt09ppMe37M/ZrKOHJ6ycNX6ytbbXWN2I1MR+XK0xs8zmdzj5t42Y9cebGcUu7UpbT17zm1LzP6cLRfSrGItXHcyPNflR369pjO9Hs2zGPCWkYn2oxOfEmcm56aaaHrbFp1rTeid6b88eGPB5+03m1t2Y3d0+CbRntOxza030+c86z/0vo7TFY3b+HKTY9PHq6mEeuUjdjfxHzaz6tbjO7+zfnZXr9xO/tv5/8Td2X8v1Tu5Tk4uScu1Df238/wDibuy/l+q3Gqkq4uK1cWpKPfodmNS2jp2mJm9Lb0xPDOHNmkal4jhW0buehtdU5/RxjJuUea3LVKG/V6a7jmilp9iItM2ruzNomIpx44y3m0R7UzEYtvRu49p24npuFugMgaNAKlECa2nnAcjN2WrewCGMtoYO6L6Wv0Z8fYwGfPFL3XQlTL18PeA+q+mzfCal7QKqwOdk8pvkmRZR8n5/RvTnc/TX2c1msaeYzlz32jdtNd3OPNiPLXT/AHP/AJv/ALCfReavrX5fuYuXWn+5f83/AOMei8/setfl+7mba5RXbYhChUqquMucop8+Tlo1x0Xf3Fq03eLLU1p1OGMO1yV2Vfh12ZGRHmSuSUIPiorta9ZnqWzwjwb7PpzXMzwy7UzN0JbAI7QI7QJLAJpgIkBoBVi5Eqt3GPcc+vs1db8to/ua6WtbT846LFcrPNM9HZbaVs11OHjG7z+6+ptFdSMTTtOf/R0b6qt85qPizsc4e2KVupjK6Xq4e8BcpbRzd0n0Vb82HH2sC7C2XGrsA69VPNApjEBqQG4ABgDDiBo4AKlSmAizDjLsAju2TCfYBz7eT1eusY8198d3wAV8259H1V816nvA06LLjJytxse9vi5VrV+3QnenrKu5WedY+hsMmiH1uyaX+WEP4G9brJ6Onw1+iiG0NifebMjH/uYv/pG9brJ6Onw1+iqjbGwqd9VSof8ATUo/BDMpitY5REdjvn/ZcvvtPEhLSW2dnP7+IE89qYD+/iBLZtLC/GiBHZtDE/EQEtmdj9ktfBAIlkxl1YTf+Fgaf6xPq483+gG0cTaE+FGn5n/AD69lbSlxcYeC1Aqr2DkS+stm/DcBbTydqW9x1fe9/wAQOhVsmEOwCyvDjHsAfGlIBqgBuogZAyAAAAAAY0AxzQMcwDHRIDR0RfYBo8SD7ANHgVvsAW9m1vsAW9k1vsA0exqn5qA0ew6fQXuA1+YqPQXuAPmKj0F7gNlsOn0F7gN1sapeagN1smtdgDFs2tdgDFgVrsA3WJBdgG6oiuwDfokBnmAZ5oGdAMgAAAAAAAAAAAAAAAAAAAAGgBoAaAGgBoAaAGgBoAAAAAAAAAAAAAAAAB//2Q==;" vertex="1" parent="1">
          <mxGeometry x="90" y="370" width="80" height="80" as="geometry" />
        </mxCell>
        <mxCell id="8JHLPYsTB3bUKlKufhjB-4" value="" style="edgeStyle=orthogonalEdgeStyle;rounded=0;orthogonalLoop=1;jettySize=auto;html=1;" edge="1" parent="1" source="8JHLPYsTB3bUKlKufhjB-2" target="8JHLPYsTB3bUKlKufhjB-3">
          <mxGeometry relative="1" as="geometry" />
        </mxCell>
        <mxCell id="8JHLPYsTB3bUKlKufhjB-17" style="edgeStyle=orthogonalEdgeStyle;rounded=0;orthogonalLoop=1;jettySize=auto;html=1;exitX=1;exitY=0.5;exitDx=0;exitDy=0;" edge="1" parent="1" source="8JHLPYsTB3bUKlKufhjB-2" target="8JHLPYsTB3bUKlKufhjB-12">
          <mxGeometry relative="1" as="geometry" />
        </mxCell>
        <mxCell id="8JHLPYsTB3bUKlKufhjB-2" value="Admin Section" style="rounded=0;whiteSpace=wrap;html=1;" vertex="1" parent="1">
          <mxGeometry x="360" y="40" width="120" height="40" as="geometry" />
        </mxCell>
        <mxCell id="8JHLPYsTB3bUKlKufhjB-6" value="" style="edgeStyle=orthogonalEdgeStyle;rounded=0;orthogonalLoop=1;jettySize=auto;html=1;" edge="1" parent="1" source="8JHLPYsTB3bUKlKufhjB-3" target="8JHLPYsTB3bUKlKufhjB-5">
          <mxGeometry relative="1" as="geometry" />
        </mxCell>
        <mxCell id="8JHLPYsTB3bUKlKufhjB-3" value="Add Patients and doctors details" style="rounded=0;whiteSpace=wrap;html=1;" vertex="1" parent="1">
          <mxGeometry x="160" y="180" width="120" height="60" as="geometry" />
        </mxCell>
        <mxCell id="8JHLPYsTB3bUKlKufhjB-8" value="" style="edgeStyle=orthogonalEdgeStyle;rounded=0;orthogonalLoop=1;jettySize=auto;html=1;" edge="1" parent="1" source="8JHLPYsTB3bUKlKufhjB-5" target="8JHLPYsTB3bUKlKufhjB-7">
          <mxGeometry relative="1" as="geometry" />
        </mxCell>
        <mxCell id="8JHLPYsTB3bUKlKufhjB-5" value="Edit Patient and Doctors details" style="rounded=0;whiteSpace=wrap;html=1;" vertex="1" parent="1">
          <mxGeometry x="210" y="290" width="120" height="60" as="geometry" />
        </mxCell>
        <mxCell id="8JHLPYsTB3bUKlKufhjB-9" style="edgeStyle=orthogonalEdgeStyle;rounded=0;orthogonalLoop=1;jettySize=auto;html=1;exitX=0;exitY=0.5;exitDx=0;exitDy=0;" edge="1" parent="1" source="8JHLPYsTB3bUKlKufhjB-7" target="8JHLPYsTB3bUKlKufhjB-1">
          <mxGeometry relative="1" as="geometry" />
        </mxCell>
        <mxCell id="8JHLPYsTB3bUKlKufhjB-7" value="View Details" style="rounded=0;whiteSpace=wrap;html=1;" vertex="1" parent="1">
          <mxGeometry x="290" y="390" width="120" height="40" as="geometry" />
        </mxCell>
        <mxCell id="8JHLPYsTB3bUKlKufhjB-22" style="edgeStyle=orthogonalEdgeStyle;rounded=0;orthogonalLoop=1;jettySize=auto;html=1;exitX=1;exitY=0.5;exitDx=0;exitDy=0;entryX=0.5;entryY=1;entryDx=0;entryDy=0;" edge="1" parent="1" source="8JHLPYsTB3bUKlKufhjB-10" target="8JHLPYsTB3bUKlKufhjB-20">
          <mxGeometry relative="1" as="geometry" />
        </mxCell>
        <mxCell id="8JHLPYsTB3bUKlKufhjB-10" value="Retrive the data to the web" style="whiteSpace=wrap;html=1;verticalAlign=top;labelBackgroundColor=default;" vertex="1" parent="1">
          <mxGeometry x="70" y="590" width="120" height="40" as="geometry" />
        </mxCell>
        <mxCell id="8JHLPYsTB3bUKlKufhjB-14" value="" style="edgeStyle=orthogonalEdgeStyle;rounded=0;orthogonalLoop=1;jettySize=auto;html=1;" edge="1" parent="1" source="8JHLPYsTB3bUKlKufhjB-12" target="8JHLPYsTB3bUKlKufhjB-13">
          <mxGeometry relative="1" as="geometry" />
        </mxCell>
        <mxCell id="8JHLPYsTB3bUKlKufhjB-12" value="Take image" style="rounded=0;whiteSpace=wrap;html=1;" vertex="1" parent="1">
          <mxGeometry x="660" y="180" width="120" height="40" as="geometry" />
        </mxCell>
        <mxCell id="8JHLPYsTB3bUKlKufhjB-16" value="" style="edgeStyle=orthogonalEdgeStyle;rounded=0;orthogonalLoop=1;jettySize=auto;html=1;" edge="1" parent="1" source="8JHLPYsTB3bUKlKufhjB-13" target="8JHLPYsTB3bUKlKufhjB-15">
          <mxGeometry relative="1" as="geometry" />
        </mxCell>
        <mxCell id="8JHLPYsTB3bUKlKufhjB-13" value="Save Image" style="whiteSpace=wrap;html=1;rounded=0;" vertex="1" parent="1">
          <mxGeometry x="660" y="270" width="120" height="40" as="geometry" />
        </mxCell>
        <mxCell id="8JHLPYsTB3bUKlKufhjB-24" value="" style="edgeStyle=orthogonalEdgeStyle;rounded=0;orthogonalLoop=1;jettySize=auto;html=1;" edge="1" parent="1" source="8JHLPYsTB3bUKlKufhjB-15" target="8JHLPYsTB3bUKlKufhjB-23">
          <mxGeometry relative="1" as="geometry" />
        </mxCell>
        <mxCell id="8JHLPYsTB3bUKlKufhjB-15" value="Save Image" style="whiteSpace=wrap;html=1;rounded=0;" vertex="1" parent="1">
          <mxGeometry x="660" y="360" width="120" height="40" as="geometry" />
        </mxCell>
        <mxCell id="8JHLPYsTB3bUKlKufhjB-21" style="edgeStyle=orthogonalEdgeStyle;rounded=0;orthogonalLoop=1;jettySize=auto;html=1;exitX=1;exitY=0.5;exitDx=0;exitDy=0;entryX=0;entryY=0.5;entryDx=0;entryDy=0;" edge="1" parent="1" source="8JHLPYsTB3bUKlKufhjB-20" target="8JHLPYsTB3bUKlKufhjB-12">
          <mxGeometry relative="1" as="geometry" />
        </mxCell>
        <mxCell id="8JHLPYsTB3bUKlKufhjB-20" value="Doctor" style="rounded=0;whiteSpace=wrap;html=1;" vertex="1" parent="1">
          <mxGeometry x="410" y="185" width="120" height="30" as="geometry" />
        </mxCell>
        <mxCell id="8JHLPYsTB3bUKlKufhjB-26" value="" style="edgeStyle=orthogonalEdgeStyle;rounded=0;orthogonalLoop=1;jettySize=auto;html=1;" edge="1" parent="1" source="8JHLPYsTB3bUKlKufhjB-23" target="8JHLPYsTB3bUKlKufhjB-25">
          <mxGeometry relative="1" as="geometry" />
        </mxCell>
        <mxCell id="8JHLPYsTB3bUKlKufhjB-23" value="Check image" style="whiteSpace=wrap;html=1;rounded=0;" vertex="1" parent="1">
          <mxGeometry x="660" y="480" width="120" height="40" as="geometry" />
        </mxCell>
        <mxCell id="8JHLPYsTB3bUKlKufhjB-25" value="View Image for the doctors and patients" style="whiteSpace=wrap;html=1;rounded=0;" vertex="1" parent="1">
          <mxGeometry x="660" y="600" width="120" height="40" as="geometry" />
        </mxCell>
      </root>
    </mxGraphModel>
  </diagram>
</mxfile>
